<svg xmlns="http://www.w3.org/2000/svg" xmlns:xlink="http://www.w3.org/1999/xlink" width="500" zoomAndPan="magnify" viewBox="0 0 375 374.999991" height="500" preserveAspectRatio="xMidYMid meet" version="1.0"><defs><g/></defs><rect x="-37.5" width="450" fill="#ffffff" y="-37.499999" height="449.999989" fill-opacity="1"/><rect x="-37.5" width="450" fill="#ffffff" y="-37.499999" height="449.999989" fill-opacity="1"/><rect x="-37.5" width="450" fill="#ffffff" y="-37.499999" height="449.999989" fill-opacity="1"/><path stroke-linecap="butt" transform="matrix(0.92971, 0.000000000000000529, -0.000000000000000528, 0.929129, 42.70588, 217.996392)" fill="none" stroke-linejoin="miter" d="M 0.00123819 5.999081 L 99.948392 5.999081 " stroke="#000000" stroke-width="12" stroke-opacity="1" stroke-miterlimit="4"/><g fill="#000000" fill-opacity="1"><g transform="translate(42.70588, 202.563783)"><g><path d="M 13.65625 -33.875 L 0.25 -33.875 L 0.25 -43.65625 L 39.359375 -43.65625 L 39.359375 -33.875 L 26.015625 -33.875 L 26.015625 0 L 13.65625 0 Z M 13.65625 -33.875 "/></g></g></g><g fill="#000000" fill-opacity="1"><g transform="translate(87.733478, 202.563783)"><g><path d="M 4.359375 -43.65625 L 16.71875 -43.65625 L 16.71875 -9.796875 L 37.546875 -9.796875 L 37.546875 0 L 4.359375 0 Z M 4.359375 -43.65625 "/></g></g></g><g fill="#000000" fill-opacity="1"><g transform="translate(131.201976, 202.563783)"><g><path d="M 13.90625 0.875 C 10.707031 0.875 7.796875 0.320312 5.171875 -0.78125 C 2.554688 -1.882812 0.414062 -3.472656 -1.25 -5.546875 L 5.484375 -13.53125 C 7.816406 -10.5 10.332031 -8.984375 13.03125 -8.984375 C 14.820312 -8.984375 16.1875 -9.519531 17.125 -10.59375 C 18.0625 -11.675781 18.53125 -13.257812 18.53125 -15.34375 L 18.53125 -34.125 L 3.4375 -34.125 L 3.4375 -43.65625 L 30.75 -43.65625 L 30.75 -16.09375 C 30.75 -10.4375 29.320312 -6.191406 26.46875 -3.359375 C 23.625 -0.535156 19.4375 0.875 13.90625 0.875 Z M 13.90625 0.875 "/></g></g></g><g fill="#000000" fill-opacity="1"><g transform="translate(142.630836, 227.047875)"><g><path d="M 9.765625 -9.671875 L 9.765625 0 L 8.390625 0 L 8.390625 -4.3125 L 2.828125 -4.3125 L 2.828125 0 L 1.453125 0 L 1.453125 -9.671875 L 2.828125 -9.671875 L 2.828125 -5.515625 L 8.390625 -5.515625 L 8.390625 -9.671875 Z M 9.765625 -9.671875 "/></g></g></g><g fill="#000000" fill-opacity="1"><g transform="translate(157.259545, 227.047875)"><g><path d="M 5.8125 0.109375 C 4.832031 0.109375 3.953125 -0.101562 3.171875 -0.53125 C 2.390625 -0.957031 1.773438 -1.546875 1.328125 -2.296875 C 0.878906 -3.054688 0.65625 -3.898438 0.65625 -4.828125 C 0.65625 -5.765625 0.878906 -6.609375 1.328125 -7.359375 C 1.773438 -8.117188 2.390625 -8.710938 3.171875 -9.140625 C 3.953125 -9.566406 4.832031 -9.78125 5.8125 -9.78125 C 6.78125 -9.78125 7.65625 -9.566406 8.4375 -9.140625 C 9.21875 -8.710938 9.828125 -8.125 10.265625 -7.375 C 10.710938 -6.625 10.9375 -5.773438 10.9375 -4.828125 C 10.9375 -3.890625 10.710938 -3.046875 10.265625 -2.296875 C 9.828125 -1.546875 9.21875 -0.957031 8.4375 -0.53125 C 7.65625 -0.101562 6.78125 0.109375 5.8125 0.109375 Z M 5.8125 -1.125 C 6.519531 -1.125 7.15625 -1.28125 7.71875 -1.59375 C 8.289062 -1.914062 8.738281 -2.359375 9.0625 -2.921875 C 9.394531 -3.492188 9.5625 -4.128906 9.5625 -4.828125 C 9.5625 -5.535156 9.394531 -6.171875 9.0625 -6.734375 C 8.738281 -7.296875 8.289062 -7.738281 7.71875 -8.0625 C 7.15625 -8.382812 6.519531 -8.546875 5.8125 -8.546875 C 5.101562 -8.546875 4.460938 -8.382812 3.890625 -8.0625 C 3.316406 -7.738281 2.863281 -7.296875 2.53125 -6.734375 C 2.207031 -6.171875 2.046875 -5.535156 2.046875 -4.828125 C 2.046875 -4.128906 2.207031 -3.492188 2.53125 -2.921875 C 2.863281 -2.359375 3.316406 -1.914062 3.890625 -1.59375 C 4.460938 -1.28125 5.101562 -1.125 5.8125 -1.125 Z M 5.8125 -1.125 "/></g></g></g><g fill="#000000" fill-opacity="1"><g transform="translate(172.274615, 227.047875)"><g><path d="M 10.421875 0 L 10.40625 -7.046875 L 6.90625 -1.171875 L 6.265625 -1.171875 L 2.78125 -7 L 2.78125 0 L 1.453125 0 L 1.453125 -9.671875 L 2.578125 -9.671875 L 6.609375 -2.875 L 10.59375 -9.671875 L 11.734375 -9.671875 L 11.734375 0 Z M 10.421875 0 "/></g></g></g><g fill="#000000" fill-opacity="1"><g transform="translate(188.876522, 227.047875)"><g><path d="M 8.46875 -1.203125 L 8.46875 0 L 1.453125 0 L 1.453125 -9.671875 L 8.28125 -9.671875 L 8.28125 -8.46875 L 2.828125 -8.46875 L 2.828125 -5.5 L 7.6875 -5.5 L 7.6875 -4.328125 L 2.828125 -4.328125 L 2.828125 -1.203125 Z M 8.46875 -1.203125 "/></g></g></g><g fill="#000000" fill-opacity="1"><g transform="translate(201.54584, 227.047875)"><g/></g></g><g fill="#000000" fill-opacity="1"><g transform="translate(208.681922, 227.047875)"><g><path d="M 4.265625 0.109375 C 3.535156 0.109375 2.832031 0 2.15625 -0.21875 C 1.476562 -0.445312 0.945312 -0.742188 0.5625 -1.109375 L 1.078125 -2.1875 C 1.441406 -1.851562 1.910156 -1.582031 2.484375 -1.375 C 3.066406 -1.164062 3.660156 -1.0625 4.265625 -1.0625 C 5.066406 -1.0625 5.664062 -1.195312 6.0625 -1.46875 C 6.457031 -1.738281 6.65625 -2.101562 6.65625 -2.5625 C 6.65625 -2.882812 6.546875 -3.148438 6.328125 -3.359375 C 6.117188 -3.566406 5.851562 -3.722656 5.53125 -3.828125 C 5.21875 -3.941406 4.769531 -4.070312 4.1875 -4.21875 C 3.457031 -4.382812 2.867188 -4.554688 2.421875 -4.734375 C 1.972656 -4.910156 1.585938 -5.179688 1.265625 -5.546875 C 0.953125 -5.910156 0.796875 -6.398438 0.796875 -7.015625 C 0.796875 -7.535156 0.929688 -8 1.203125 -8.40625 C 1.472656 -8.820312 1.882812 -9.15625 2.4375 -9.40625 C 3 -9.65625 3.6875 -9.78125 4.5 -9.78125 C 5.070312 -9.78125 5.632812 -9.707031 6.1875 -9.5625 C 6.738281 -9.414062 7.210938 -9.203125 7.609375 -8.921875 L 7.15625 -7.8125 C 6.75 -8.070312 6.316406 -8.269531 5.859375 -8.40625 C 5.398438 -8.539062 4.945312 -8.609375 4.5 -8.609375 C 3.71875 -8.609375 3.128906 -8.460938 2.734375 -8.171875 C 2.347656 -7.890625 2.15625 -7.523438 2.15625 -7.078125 C 2.15625 -6.742188 2.265625 -6.472656 2.484375 -6.265625 C 2.703125 -6.054688 2.972656 -5.894531 3.296875 -5.78125 C 3.628906 -5.664062 4.078125 -5.546875 4.640625 -5.421875 C 5.367188 -5.242188 5.953125 -5.066406 6.390625 -4.890625 C 6.835938 -4.710938 7.21875 -4.441406 7.53125 -4.078125 C 7.851562 -3.722656 8.015625 -3.242188 8.015625 -2.640625 C 8.015625 -2.128906 7.875 -1.664062 7.59375 -1.25 C 7.320312 -0.832031 6.90625 -0.5 6.34375 -0.25 C 5.78125 -0.0078125 5.085938 0.109375 4.265625 0.109375 Z M 4.265625 0.109375 "/></g></g></g><g fill="#000000" fill-opacity="1"><g transform="translate(220.675111, 227.047875)"><g><path d="M 5.8125 0.109375 C 4.832031 0.109375 3.953125 -0.101562 3.171875 -0.53125 C 2.390625 -0.957031 1.773438 -1.546875 1.328125 -2.296875 C 0.878906 -3.054688 0.65625 -3.898438 0.65625 -4.828125 C 0.65625 -5.765625 0.878906 -6.609375 1.328125 -7.359375 C 1.773438 -8.117188 2.390625 -8.710938 3.171875 -9.140625 C 3.953125 -9.566406 4.832031 -9.78125 5.8125 -9.78125 C 6.78125 -9.78125 7.65625 -9.566406 8.4375 -9.140625 C 9.21875 -8.710938 9.828125 -8.125 10.265625 -7.375 C 10.710938 -6.625 10.9375 -5.773438 10.9375 -4.828125 C 10.9375 -3.890625 10.710938 -3.046875 10.265625 -2.296875 C 9.828125 -1.546875 9.21875 -0.957031 8.4375 -0.53125 C 7.65625 -0.101562 6.78125 0.109375 5.8125 0.109375 Z M 5.8125 -1.125 C 6.519531 -1.125 7.15625 -1.28125 7.71875 -1.59375 C 8.289062 -1.914062 8.738281 -2.359375 9.0625 -2.921875 C 9.394531 -3.492188 9.5625 -4.128906 9.5625 -4.828125 C 9.5625 -5.535156 9.394531 -6.171875 9.0625 -6.734375 C 8.738281 -7.296875 8.289062 -7.738281 7.71875 -8.0625 C 7.15625 -8.382812 6.519531 -8.546875 5.8125 -8.546875 C 5.101562 -8.546875 4.460938 -8.382812 3.890625 -8.0625 C 3.316406 -7.738281 2.863281 -7.296875 2.53125 -6.734375 C 2.207031 -6.171875 2.046875 -5.535156 2.046875 -4.828125 C 2.046875 -4.128906 2.207031 -3.492188 2.53125 -2.921875 C 2.863281 -2.359375 3.316406 -1.914062 3.890625 -1.59375 C 4.460938 -1.28125 5.101562 -1.125 5.8125 -1.125 Z M 5.8125 -1.125 "/></g></g></g><g fill="#000000" fill-opacity="1"><g transform="translate(235.690181, 227.047875)"><g><path d="M 1.453125 -9.671875 L 2.828125 -9.671875 L 2.828125 -1.203125 L 8.0625 -1.203125 L 8.0625 0 L 1.453125 0 Z M 1.453125 -9.671875 "/></g></g></g><g fill="#000000" fill-opacity="1"><g transform="translate(247.310802, 227.047875)"><g><path d="M 5.453125 0.109375 C 4.160156 0.109375 3.15625 -0.253906 2.4375 -0.984375 C 1.726562 -1.722656 1.375 -2.785156 1.375 -4.171875 L 1.375 -9.671875 L 2.75 -9.671875 L 2.75 -4.234375 C 2.75 -2.160156 3.65625 -1.125 5.46875 -1.125 C 6.351562 -1.125 7.03125 -1.378906 7.5 -1.890625 C 7.96875 -2.398438 8.203125 -3.179688 8.203125 -4.234375 L 8.203125 -9.671875 L 9.546875 -9.671875 L 9.546875 -4.171875 C 9.546875 -2.773438 9.1875 -1.710938 8.46875 -0.984375 C 7.75 -0.253906 6.742188 0.109375 5.453125 0.109375 Z M 5.453125 0.109375 "/></g></g></g><g fill="#000000" fill-opacity="1"><g transform="translate(261.649744, 227.047875)"><g><path d="M 3.375 -8.46875 L 0.0625 -8.46875 L 0.0625 -9.671875 L 8.046875 -9.671875 L 8.046875 -8.46875 L 4.734375 -8.46875 L 4.734375 0 L 3.375 0 Z M 3.375 -8.46875 "/></g></g></g><g fill="#000000" fill-opacity="1"><g transform="translate(273.17377, 227.047875)"><g><path d="M 1.453125 -9.671875 L 2.828125 -9.671875 L 2.828125 0 L 1.453125 0 Z M 1.453125 -9.671875 "/></g></g></g><g fill="#000000" fill-opacity="1"><g transform="translate(280.875601, 227.047875)"><g><path d="M 5.8125 0.109375 C 4.832031 0.109375 3.953125 -0.101562 3.171875 -0.53125 C 2.390625 -0.957031 1.773438 -1.546875 1.328125 -2.296875 C 0.878906 -3.054688 0.65625 -3.898438 0.65625 -4.828125 C 0.65625 -5.765625 0.878906 -6.609375 1.328125 -7.359375 C 1.773438 -8.117188 2.390625 -8.710938 3.171875 -9.140625 C 3.953125 -9.566406 4.832031 -9.78125 5.8125 -9.78125 C 6.78125 -9.78125 7.65625 -9.566406 8.4375 -9.140625 C 9.21875 -8.710938 9.828125 -8.125 10.265625 -7.375 C 10.710938 -6.625 10.9375 -5.773438 10.9375 -4.828125 C 10.9375 -3.890625 10.710938 -3.046875 10.265625 -2.296875 C 9.828125 -1.546875 9.21875 -0.957031 8.4375 -0.53125 C 7.65625 -0.101562 6.78125 0.109375 5.8125 0.109375 Z M 5.8125 -1.125 C 6.519531 -1.125 7.15625 -1.28125 7.71875 -1.59375 C 8.289062 -1.914062 8.738281 -2.359375 9.0625 -2.921875 C 9.394531 -3.492188 9.5625 -4.128906 9.5625 -4.828125 C 9.5625 -5.535156 9.394531 -6.171875 9.0625 -6.734375 C 8.738281 -7.296875 8.289062 -7.738281 7.71875 -8.0625 C 7.15625 -8.382812 6.519531 -8.546875 5.8125 -8.546875 C 5.101562 -8.546875 4.460938 -8.382812 3.890625 -8.0625 C 3.316406 -7.738281 2.863281 -7.296875 2.53125 -6.734375 C 2.207031 -6.171875 2.046875 -5.535156 2.046875 -4.828125 C 2.046875 -4.128906 2.207031 -3.492188 2.53125 -2.921875 C 2.863281 -2.359375 3.316406 -1.914062 3.890625 -1.59375 C 4.460938 -1.28125 5.101562 -1.125 5.8125 -1.125 Z M 5.8125 -1.125 "/></g></g></g><g fill="#000000" fill-opacity="1"><g transform="translate(295.890679, 227.047875)"><g><path d="M 9.765625 -9.671875 L 9.765625 0 L 8.640625 0 L 2.828125 -7.203125 L 2.828125 0 L 1.453125 0 L 1.453125 -9.671875 L 2.578125 -9.671875 L 8.390625 -2.453125 L 8.390625 -9.671875 Z M 9.765625 -9.671875 "/></g></g></g><g fill="#000000" fill-opacity="1"><g transform="translate(310.51938, 227.047875)"><g><path d="M 4.265625 0.109375 C 3.535156 0.109375 2.832031 0 2.15625 -0.21875 C 1.476562 -0.445312 0.945312 -0.742188 0.5625 -1.109375 L 1.078125 -2.1875 C 1.441406 -1.851562 1.910156 -1.582031 2.484375 -1.375 C 3.066406 -1.164062 3.660156 -1.0625 4.265625 -1.0625 C 5.066406 -1.0625 5.664062 -1.195312 6.0625 -1.46875 C 6.457031 -1.738281 6.65625 -2.101562 6.65625 -2.5625 C 6.65625 -2.882812 6.546875 -3.148438 6.328125 -3.359375 C 6.117188 -3.566406 5.851562 -3.722656 5.53125 -3.828125 C 5.21875 -3.941406 4.769531 -4.070312 4.1875 -4.21875 C 3.457031 -4.382812 2.867188 -4.554688 2.421875 -4.734375 C 1.972656 -4.910156 1.585938 -5.179688 1.265625 -5.546875 C 0.953125 -5.910156 0.796875 -6.398438 0.796875 -7.015625 C 0.796875 -7.535156 0.929688 -8 1.203125 -8.40625 C 1.472656 -8.820312 1.882812 -9.15625 2.4375 -9.40625 C 3 -9.65625 3.6875 -9.78125 4.5 -9.78125 C 5.070312 -9.78125 5.632812 -9.707031 6.1875 -9.5625 C 6.738281 -9.414062 7.210938 -9.203125 7.609375 -8.921875 L 7.15625 -7.8125 C 6.75 -8.070312 6.316406 -8.269531 5.859375 -8.40625 C 5.398438 -8.539062 4.945312 -8.609375 4.5 -8.609375 C 3.71875 -8.609375 3.128906 -8.460938 2.734375 -8.171875 C 2.347656 -7.890625 2.15625 -7.523438 2.15625 -7.078125 C 2.15625 -6.742188 2.265625 -6.472656 2.484375 -6.265625 C 2.703125 -6.054688 2.972656 -5.894531 3.296875 -5.78125 C 3.628906 -5.664062 4.078125 -5.546875 4.640625 -5.421875 C 5.367188 -5.242188 5.953125 -5.066406 6.390625 -4.890625 C 6.835938 -4.710938 7.21875 -4.441406 7.53125 -4.078125 C 7.851562 -3.722656 8.015625 -3.242188 8.015625 -2.640625 C 8.015625 -2.128906 7.875 -1.664062 7.59375 -1.25 C 7.320312 -0.832031 6.90625 -0.5 6.34375 -0.25 C 5.78125 -0.0078125 5.085938 0.109375 4.265625 0.109375 Z M 4.265625 0.109375 "/></g></g></g></svg>